<?xml version="1.0" encoding="utf-8"?>
<!-- Generator: Adobe Illustrator 23.0.2, SVG Export Plug-In . SVG Version: 6.00 Build 0)  -->
<svg version="1.1" id="Layer_1" xmlns="http://www.w3.org/2000/svg" xmlns:xlink="http://www.w3.org/1999/xlink" x="0px" y="0px"
	 viewBox="0 0 1008 936" style="enable-background:new 0 0 1008 936;" xml:space="preserve">
<style type="text/css">
	.st0{fill:none;stroke:#FF0000;stroke-width:1.000000e-03;stroke-linecap:round;}
	.st1{fill:none;stroke:#ED1C24;stroke-width:1.000000e-03;stroke-miterlimit:10;}
</style>
<g>
	<rect x="33.8" y="33.5" class="st0" width="936" height="288"/>
	<rect x="107.2" y="225.7" class="st0" width="73.3" height="38.3"/>
</g>
<rect x="356.6" y="352.4" class="st1" width="286.3" height="110.6"/>
<rect x="58.6" y="476.4" class="st1" width="286.3" height="110.6"/>
<rect x="58.6" y="352.4" class="st1" width="286.3" height="110.6"/>
<rect x="360.8" y="476.4" class="st1" width="286.3" height="110.6"/>
<rect x="658.8" y="476.4" class="st1" width="286.3" height="110.6"/>
<g>
	<rect x="62.6" y="762.5" class="st1" width="286.3" height="110.6"/>
	<path class="st1" d="M320.5,817.8L320.5,817.8c0,14.9-12.1,26.9-26.9,26.9H117.8c-14.9,0-26.9-12.1-26.9-26.9l0,0
		c0-14.9,12.1-26.9,26.9-26.9h175.7C308.5,790.8,320.5,802.9,320.5,817.8z"/>
</g>
<g>
	<rect x="360.9" y="762.5" class="st1" width="286.3" height="110.6"/>
	<path class="st1" d="M618.8,817.8L618.8,817.8c0,14.9-12.1,26.9-26.9,26.9H416.1c-14.9,0-26.9-12.1-26.9-26.9l0,0
		c0-14.9,12.1-26.9,26.9-26.9h175.8C606.7,790.8,618.8,802.9,618.8,817.8z"/>
</g>
<g>
	<rect x="663.1" y="762.5" class="st1" width="286.3" height="110.6"/>
	<path class="st1" d="M756.6,803.6c-7.6,0-13.8,6-14.1,13.5c0,0.2,0,0.5,0,0.7c0,0.2,0,0.5,0,0.7c0.4,7.5,6.5,13.5,14.1,13.5
		c5.2,0,9.8-2.9,12.3-7.1h102.5c3.9,0,7.1-3.2,7.1-7.1s-3.2-7.1-7.1-7.1H768.9C766.5,806.4,761.9,803.6,756.6,803.6z"/>
</g>
<g>
	<rect x="62.6" y="609.5" class="st1" width="286.3" height="110.6"/>
	<path class="st1" d="M320.5,664.7L320.5,664.7c0,14.9-12.1,26.9-26.9,26.9H117.8c-14.9,0-26.9-12.1-26.9-26.9l0,0
		c0-14.9,12.1-26.9,26.9-26.9h175.7C308.5,637.8,320.5,649.9,320.5,664.7z"/>
</g>
<g>
	<rect x="360.9" y="609.5" class="st1" width="286.3" height="110.6"/>
	<path class="st1" d="M618.8,664.7L618.8,664.7c0,14.9-12.1,26.9-26.9,26.9H416.1c-14.9,0-26.9-12.1-26.9-26.9l0,0
		c0-14.9,12.1-26.9,26.9-26.9h175.8C606.7,637.8,618.8,649.9,618.8,664.7z"/>
</g>
<g>
	<rect x="658.8" y="609.5" class="st1" width="286.3" height="110.6"/>
	<path class="st1" d="M752.4,650.6c-7.6,0-13.8,6-14.1,13.5c0,0.2,0,0.5,0,0.7s0,0.5,0,0.7c0.4,7.5,6.5,13.4,14.1,13.4
		c5.2,0,9.8-2.8,12.3-7.1h102.5c3.9,0,7.1-3.2,7.1-7.1c0-3.9-3.2-7.1-7.1-7.1H764.6C762.2,653.4,757.6,650.6,752.4,650.6z"/>
</g>
<rect x="694.9" y="351.4" class="st1" width="250.3" height="110.6"/>
</svg>
